inDegrees=no
num_controls=7
num_derivatives=13
num_iterations=153
num_multipliers=7
num_parameters=0
num_slacks=7
num_states=26
objective=0.489133
objective_accelerations=0.003721
objective_balance=0.003568
objective_effort=0.007981
objective_height=0.384498
objective_ligament=0.089366
solver_duration=2044.730356
status=Solve_Succeeded
success=true
DataType=double
version=3
OpenSimVersion=4.5
endheader
time	/jointset/ground_pelvis/pelvis_tilt/value	/jointset/ground_pelvis/pelvis_tx/value	/jointset/ground_pelvis/pelvis_ty/value	/jointset/hip_l/hip_flexion_l/value	/jointset/hip_l/hip_adduction_l/value	/jointset/hip_l/hip_rotation_l/value	/jointset/back/lumbar_extension/value	/jointset/patellofemoral_l/patellar_flexion_l/value	/jointset/knee_l/knee_flexion_l/value	/jointset/knee_l/knee_adduction_l/value	/jointset/knee_l/knee_rotation_l/value	/jointset/ankle_l/ankle_angle_l/value	/jointset/subtalar_l/subtalar_angle_l/value	/jointset/ground_pelvis/pelvis_tilt/speed	/jointset/ground_pelvis/pelvis_tx/speed	/jointset/ground_pelvis/pelvis_ty/speed	/jointset/hip_l/hip_flexion_l/speed	/jointset/hip_l/hip_adduction_l/speed	/jointset/hip_l/hip_rotation_l/speed	/jointset/back/lumbar_extension/speed	/jointset/patellofemoral_l/patellar_flexion_l/speed	/jointset/knee_l/knee_flexion_l/speed	/jointset/knee_l/knee_adduction_l/speed	/jointset/knee_l/knee_rotation_l/speed	/jointset/ankle_l/ankle_angle_l/speed	/jointset/subtalar_l/subtalar_angle_l/speed	/forceset/tau_hip_flexion_l	/forceset/tau_hip_adduction_l	/forceset/tau_hip_rotation_l	/forceset/tau_knee_flexion_l	/forceset/tau_ankle_angle_l	/forceset/tau_subtalar_angle_l	/forceset/tau_lumbar_extension	lambda_cid13_p0	lambda_cid13_p1	lambda_cid13_p2	lambda_cid13_p3	lambda_cid13_p4	lambda_cid13_p5	lambda_cid14_p0	/jointset/ground_pelvis/pelvis_tilt/accel	/jointset/ground_pelvis/pelvis_tx/accel	/jointset/ground_pelvis/pelvis_ty/accel	/jointset/hip_l/hip_flexion_l/accel	/jointset/hip_l/hip_adduction_l/accel	/jointset/hip_l/hip_rotation_l/accel	/jointset/back/lumbar_extension/accel	/jointset/patellofemoral_l/patellar_flexion_l/accel	/jointset/knee_l/knee_flexion_l/accel	/jointset/knee_l/knee_adduction_l/accel	/jointset/knee_l/knee_rotation_l/accel	/jointset/ankle_l/ankle_angle_l/accel	/jointset/subtalar_l/subtalar_angle_l/accel	gamma_cid13_p0	gamma_cid13_p1	gamma_cid13_p2	gamma_cid13_p3	gamma_cid13_p4	gamma_cid13_p5	gamma_cid14_p0
0	-0.006091279065944919	0.04218609048302348	0.9244608320514972	0.3085816938045678	-0.2425725580053529	-0.3261950753781758	-0.3879492264334186	0.2499269421184852	0.2499269421184919	-0.06261267138521159	-0.1745307246380042	-0.0008036623358878681	0.05610759960319304	0	0	0	0	0	0	0	0	0	0	0	0	0	0.01695448017617276	0.02690601802364904	-0.009964118103263298	-0.2639254398454191	0.2937348070080025	-0.07702989276623434	0.08274653683023593	43.57085015076338	25.51603033759556	-4.169180406278291	-25.88110382725113	-699.9403430735829	-23.72824214819178	-22.83718529395713	-0.04654523626705363	0.1108218276426936	0.02273508637399944	-0.102284750127273	0.1665892845480132	-0.1071512243410439	-1.452433658273169	-0.1112564622342173	-0.1112564622342159	0.3197874237276157	0.01297439046151573	0.1363104011193436	0.2292649448194605	8.040710945781218e-10	6.109184177822133e-09	-3.214595400445986e-09	-4.663657595944907e-11	6.019724904289436e-10	8.312338884403275e-09	5.00154271153169e-10
0.01	-0.006092389119223348	0.04219004179431143	0.924461842934535	0.3085775541890854	-0.2425642405632825	-0.3261999742927464	-0.3880206882746557	0.2499218718100472	0.2499218718100879	-0.06259661765009764	-0.1745299317239286	-0.0007985728555463417	0.05611837728765182	-8.708690038452535e-05	0.000630737516803576	0.0001918674121400087	-0.0007526739702533465	0.001666461720840457	-0.0009496443058043508	-0.01419693280793253	-0.0009800781601352661	-0.0009800781601352745	0.003221938261279702	0.0001628668699054576	0.0008398968320780907	0.002089496622427268	0.004907363708429415	0.01561627404270649	-0.009415514742773303	-0.2412061699298278	0.2537234238223468	-0.05377977608967435	0.09028540182127584	31.86806547612089	17.02773892110658	-2.313513172543261	-17.8646326897002	-699.5026903145256	-40.01180514863211	-22.83705632884621	0.03044807721884378	0.01527099372712087	0.01586630969327647	-0.05047140598345892	0.1671209380876685	-0.08434960925257531	-1.389007776675865	-0.08628606359463149	-0.08628606359470681	0.3250760062786417	0.01858483146112934	0.03112966339533	0.1888853884127454	6.67053558563545e-10	4.131398062891575e-09	-2.520351041365334e-09	-7.814892964041789e-11	-9.771749560830794e-10	5.453536370238238e-09	4.673411539487037e-10
0.02	-0.006090322342643992	0.04219551473677313	0.9244644632399043	0.3085681452966851	-0.2425391692395613	-0.3262134653654726	-0.388231256380918	0.2499080202058425	0.2499080202058345	-0.06254800873655285	-0.1745273817418571	-0.0007904243390488399	0.05614806861182726	0.0006353659648914783	0.0003043262347519285	0.0003218844662865695	-0.001053855360857162	0.003350776331148168	-0.001718431633724687	-0.02782125300082068	-0.001756259147933962	-0.001756259147933987	0.006511035680587677	0.0003514135880430754	0.0006118072298889644	0.003782727943198456	-0.007139752760287304	0.004326530061693045	-0.008866911382382669	-0.2184869000147355	0.213712040636525	-0.03052965941325158	0.09782426681170928	20.16517014436361	8.539809277589301	-0.4582947056883678	-9.846288140731073	-699.0649876162988	-56.29820884667782	-22.8366742368405	0.1153627168646414	-0.08060793212818267	0.01036501477529893	-0.01198623419714197	0.1701598624415174	-0.07097982876421179	-1.337911135264603	-0.07047702776696918	-0.07047702776696955	0.3332192553333546	0.01811036010803235	-0.07728688573394712	0.1500118844883583	5.300360225489681e-10	2.153611947961017e-09	-1.826106682284681e-09	-1.096612833213867e-10	-2.556322402595103e-09	2.594733856073201e-09	4.345280367442384e-10
0.03	-0.006077091462788077	0.04219369142413665	0.9244681855213985	0.3085568946838372	-0.242497198616723	-0.32623442900657	-0.3885746765128199	0.249887067386056	0.2498870673859833	-0.06246627043982612	-0.1745233365856115	-0.0007890896335602295	0.05619299678770569	0.002133707474252119	-0.0007534382606933987	0.0004231003659532891	-0.001227270712912712	0.005042656690437943	-0.002491507425027198	-0.04071262374757308	-0.00243517200252899	-0.002435172002529072	0.009834913074148386	0.0004307507185314824	-0.0004422025240276933	0.005164761676140648	-0.01681130558993412	0.02305027785347209	-0.008784509439605908	-0.2014510213976768	0.1944103950407132	-0.03887649001823536	0.1042750583199586	13.49543801515492	12.79540946921683	-0.523084938609333	-4.371248031370503	-699.1506476607237	-45.83211303754589	-22.83606753405612	0.1855045185536063	-0.1310281547668255	0.01007863990075445	-0.0246697178970393	0.1685985378781588	-0.0830527364356396	-1.242227600270669	-0.06672857864091232	-0.06672857864110994	0.3317154627535291	-0.001184992392162089	-0.1340583375706851	0.1265771582033177	6.435030284374041e-10	8.57956046909435e-10	-1.152932763359697e-09	-1.640911964732088e-10	-6.972284788669321e-10	1.056024439212716e-09	3.776127894742897e-10
0.04	-0.006045190237688769	0.04217875697724285	0.9244729357143554	0.3085429798109953	-0.242438329907264	-0.3262636396619985	-0.3890425058633753	0.2498592994047509	0.2498592994047427	-0.0623513446729133	-0.1745193041345589	-0.0008012150890801938	0.05625060090901512	0.004369435006811085	-0.00231790061671083	0.0005274667588155182	-0.00158670735246341	0.006730393657951204	-0.003367834501251549	-0.05270309672997908	-0.003119291430534404	-0.003119291430534524	0.01314852972317427	0.0003488725725625178	-0.002080224971947432	0.006317917029342188	-0.02648285841998719	0.04177402564529725	-0.008702107496122815	-0.1844151427808632	0.1751087494448393	-0.04722332062320334	0.1107258498279386	6.824676483858003	17.05084471074307	-0.5874545807338604	1.117038876787211	-699.2382285385415	-35.36962473038445	-22.83529459163596	0.2628399215039542	-0.1819475042424818	0.01099511341438918	-0.04919049169593993	0.169331184086284	-0.0916300857485116	-1.157731582395606	-0.0715183424491083	-0.07151834244910528	0.3311671064265024	-0.0141326951833177	-0.1940894245344592	0.1042362085403387	7.621346640557991e-10	-4.236353136497971e-10	-4.801932864997779e-10	-2.1899363662443e-10	1.232757019505368e-09	-4.554665632703568e-10	3.202005910689703e-10
0.05	-0.005988863562303067	0.04214685100071007	0.9244787461281816	0.3085247620894808	-0.2423627482231786	-0.3263016563990929	-0.3896270145107433	0.2498246484146132	0.2498246484144628	-0.0622036691514329	-0.1745163574840004	-0.0008312898345623768	0.05631895680537165	0.006856502173119687	-0.004027023870066948	0.0006351669341717157	-0.002064925323110078	0.008370931516099658	-0.004230365028144455	-0.06417545810060639	-0.003812332792338874	-0.003812332792338626	0.01635512143457133	0.0002427442547712079	-0.003896514059412751	0.007352136701096668	-0.02463743577090572	0.03590521472153747	-0.008687276569507194	-0.1883121856442785	0.1794176189922506	-0.04382169653876999	0.1097568617144124	8.392369675378449	15.44456296293295	-0.497605663060891	-0.447495650185937	-699.3739733113159	-39.07225484421349	-22.83438597205073	0.2357305438559258	-0.159954156952984	0.01074037087720312	-0.04835056277435332	0.1591633222018765	-0.08279229730850846	-1.13851221854294	-0.06841102349274598	-0.06841102349284861	0.3106871530341264	-0.008509956490854436	-0.1696670324074543	0.1028461267162463	1.044087245625669e-09	-3.611708427073552e-10	-7.787993670013254e-10	-2.897444048343649e-10	1.115856564626134e-09	-3.945988680194595e-10	4.691690450048797e-10
0.06	-0.005908848129286853	0.04209894190742963	0.924485650124016	0.308501519565603	-0.2422712115134122	-0.3263481439936872	-0.3903255515326559	0.2497830242125947	0.2497830242125568	-0.06202487132298772	-0.17451440352808	-0.0008783811472252589	0.0563976211544906	0.009107186525843153	-0.005518523966240886	0.0007461831604527832	-0.002591667814755549	0.009921398795192347	-0.005062006001029087	-0.07550877163714548	-0.004513933772012866	-0.004513933772012269	0.01937299112748368	0.0001503336804334191	-0.005483538409070026	0.008379607581786902	-0.02279201312238421	0.03003640379772275	-0.008672445641569703	-0.1922092285080208	0.1837264885395449	-0.04042007245445804	0.108787873600552	9.959369382551031	13.83865453605043	-0.4081039876700081	-1.99789317418148	-699.5105871213209	-42.77786668482052	-22.8333463493185	0.2155633587866299	-0.1384228728059732	0.01165832359935057	-0.05889539589546618	0.1513170682752073	-0.08545217494671892	-1.129922015578224	-0.07323026602307479	-0.0732302660230752	0.2934227027296723	-0.01138914649242336	-0.148236476972802	0.1028864503275852	1.332916498604023e-09	-2.421145472806321e-10	-1.11830420781283e-09	-3.611624710678245e-10	9.127714380310467e-10	-2.675265960218689e-10	6.268272106183144e-10
0.07000000000000001	-0.005807426217170542	0.04203726425528922	0.9244937029390122	0.3084725444994169	-0.2421646017470649	-0.3264029107826613	-0.3911362874939738	0.2497342420712438	0.2497342420711532	-0.06181682113004567	-0.1745133818623301	-0.0009401511044000065	0.05648656512298753	0.01114645298968251	-0.006774768266616966	0.0008672087255394002	-0.003234616400998876	0.01138696187105583	-0.005897503694637358	-0.08657170445239151	-0.005253909157782929	-0.005253909157782437	0.02220629699588392	4.885395261890765e-05	-0.006827633896580529	0.009411481137658566	-0.02180686953787917	0.02804394975673279	-0.008679392617345528	-0.194993372200192	0.1880040108192117	-0.04006205621240985	0.1085380446647486	11.35387335003691	13.53285848328938	-0.4665600776615514	-3.37451834673946	-699.8014775909437	-43.60045903549168	-22.83217408122785	0.1934970519131323	-0.1128895524503616	0.01274918600575611	-0.07168501441950162	0.1421370426840568	-0.08352118684102941	-1.084471489012658	-0.07609349940262917	-0.07609349940280097	0.2736718502937833	-0.01029940168554621	-0.1210730001281071	0.1036822031710896	1.776467651099626e-09	-2.889094546199651e-10	-1.415723115639958e-09	-4.356293455004651e-10	5.713780329652608e-10	-4.328161445568473e-10	8.663860926452876e-10
0.08	-0.005686533888038981	0.04196429129138572	0.9245030509122661	0.3084362018624522	-0.2420437441268723	-0.3264662170726285	-0.3920556512983503	0.2496777177110273	0.2496777177110135	-0.06158136041417635	-0.1745135293969856	-0.001014077399543067	0.05658589670603429	0.01300126992269728	-0.007777586318854244	0.0010052148120398	-0.00406518196445809	0.01277096956464265	-0.006769906199205972	-0.09723434024827507	-0.00606237752550236	-0.006062377525501992	0.02485509572022837	-8.350640558851775e-05	-0.007914806003607637	0.01045713049169909	-0.02082172595376715	0.02605149571566989	-0.008686339592444392	-0.1977775158925928	0.1922815330987844	-0.0397040399704842	0.1082882157287306	12.74762440379216	13.22746541533906	-0.5253901357424557	-4.740143495019065	-700.0950160652837	-44.42588357250205	-22.83087350181351	0.1786734526214935	-0.08773762317820624	0.01505442788208187	-0.09641879133837969	0.1350059918198305	-0.09283313713958966	-1.049862611705965	-0.08692886241287914	-0.08692886241288351	0.256521273918551	-0.01756527257183565	-0.0968518008761277	0.1056416099613157	2.230000861628599e-09	-3.464044395571083e-10	-1.710426801984224e-09	-5.102929172362785e-10	2.210615131594301e-10	-6.169677460294108e-10	1.111228891860231e-09
